HIERARCHY
ROOT Hips
{
	OFFSET 0.000000 0.000000 0.000000
	CHANNELS 6 Xposition Yposition Zposition Xrotation Yrotation Zrotation
	JOINT LeftUpLeg_virtual
	{
		OFFSET 0.000000 0.000000 0.000000
		CHANNELS 3 Xrotation Yrotation Zrotation
		JOINT LeftUpLeg
		{
			OFFSET 13.026900 -6.336304 -1.092800
			CHANNELS 3 Xrotation Yrotation Zrotation
			JOINT LeftLeg
			{
				OFFSET 0.524474 -46.096886 9.782700
				CHANNELS 3 Xrotation Yrotation Zrotation
				JOINT LeftFoot
				{
					OFFSET -0.524474 -53.427422 -12.948200
					CHANNELS 3 Xrotation Yrotation Zrotation
					JOINT LeftToeBase
					{
						OFFSET 0.192200 -14.009700 16.364100
						CHANNELS 3 Xrotation Yrotation Zrotation
						JOINT LeftToe_End
						{
							OFFSET -1.784700 -0.561700 9.474800
							CHANNELS 3 Xrotation Yrotation Zrotation
							End Site
							{
								OFFSET 0 0 0
							}
						}
					}
				}
			}
		}
	}
	JOINT RightUpLeg_virtual
	{
		OFFSET 0.000000 0.000000 0.000000
		CHANNELS 3 Xrotation Yrotation Zrotation
		JOINT RightUpLeg
		{
			OFFSET -12.883000 -6.336304 -1.092800
			CHANNELS 3 Xrotation Yrotation Zrotation
			JOINT RightLeg
			{
				OFFSET -0.524587 -46.096825 9.782800
				CHANNELS 3 Xrotation Yrotation Zrotation
				JOINT RightFoot
				{
					OFFSET 0.524587 -53.427383 -12.948300
					CHANNELS 3 Xrotation Yrotation Zrotation
					JOINT RightToeBase
					{
						OFFSET -0.192200 -14.009700 16.364100
						CHANNELS 3 Xrotation Yrotation Zrotation
						JOINT RightToe_End
						{
							OFFSET 1.784700 -0.561700 9.474800
							CHANNELS 3 Xrotation Yrotation Zrotation
							End Site
							{
								OFFSET 0 0 0
							}
						}
					}
				}
			}
		}
	}
	JOINT Spine_virtual
	{
		OFFSET 0.000000 0.000000 0.000000
		CHANNELS 3 Xrotation Yrotation Zrotation
		JOINT Spine
		{
			OFFSET 0.072000 7.257294 -0.789700
			CHANNELS 3 Xrotation Yrotation Zrotation
			JOINT Spine1
			{
				OFFSET 0.000000 12.508769 -0.658067
				CHANNELS 3 Xrotation Yrotation Zrotation
				JOINT Spine1_split
				{
					OFFSET 0.000000 12.508769 -0.658067
					CHANNELS 3 Xrotation Yrotation Zrotation
					JOINT Spine2
					{
						OFFSET 0.000000 12.508769 -0.658067
						CHANNELS 3 Xrotation Yrotation Zrotation
						JOINT Neck_virtual
						{
							OFFSET 0.000000 0.000000 0.000000
							CHANNELS 3 Xrotation Yrotation Zrotation
							JOINT Neck
							{
								OFFSET 0.000000 14.033295 7.520400
								CHANNELS 3 Xrotation Yrotation Zrotation
								JOINT Head
								{
									OFFSET 0.000000 8.198502 5.703100
									CHANNELS 3 Xrotation Yrotation Zrotation
									JOINT HeadTop_End
									{
										OFFSET 0.000000 17.760803 13.332701
										CHANNELS 3 Xrotation Yrotation Zrotation
										End Site
										{
											OFFSET 0 0 0
										}
									}
								}
							}
						}
						JOINT LeftShoulder_virtual
						{
							OFFSET 0.000000 0.000000 0.000000
							CHANNELS 3 Xrotation Yrotation Zrotation
							JOINT LeftShoulder
							{
								OFFSET 6.292450 5.785301 -0.669000
								CHANNELS 3 Xrotation Yrotation Zrotation
								JOINT LeftShoulder_split
								{
									OFFSET 6.292450 5.785301 -0.669000
									CHANNELS 3 Xrotation Yrotation Zrotation
									JOINT LeftArm
									{
										OFFSET 13.907140 -6.093903 1.965100
										CHANNELS 3 Xrotation Yrotation Zrotation
										JOINT LeftForeArm
										{
											OFFSET 34.140198 0.000000 0.000000
											CHANNELS 3 Xrotation Yrotation Zrotation
											JOINT LeftHand
											{
												OFFSET 40.960209 0.000000 0.000000
												CHANNELS 3 Xrotation Yrotation Zrotation
												End Site
												{
													OFFSET 0 0 0
												}
											}
										}
									}
								}
							}
						}
						JOINT RightShoulder_virtual
						{
							OFFSET 0.000000 0.000000 0.000000
							CHANNELS 3 Xrotation Yrotation Zrotation
							JOINT RightShoulder
							{
								OFFSET -6.292450 5.785301 -0.669000
								CHANNELS 3 Xrotation Yrotation Zrotation
								JOINT RightShoulder_split
								{
									OFFSET -6.292450 5.785301 -0.669000
									CHANNELS 3 Xrotation Yrotation Zrotation
									JOINT RightArm
									{
										OFFSET -13.907140 -6.093903 1.965100
										CHANNELS 3 Xrotation Yrotation Zrotation
										JOINT RightForeArm
										{
											OFFSET -34.140198 0.000000 0.000000
											CHANNELS 3 Xrotation Yrotation Zrotation
											JOINT RightHand
											{
												OFFSET -40.960209 0.000000 0.000000
												CHANNELS 3 Xrotation Yrotation Zrotation
												End Site
												{
													OFFSET 0 0 0
												}
											}
										}
									}
								}
							}
						}
					}
				}
			}
		}
	}
}
MOTION
Frames: 7
Frame Time: 0.03333333
-0.770587 66.983162 -0.180122 0.000000 0.000000 0.000000 177.728025 -7.198943 171.573478 -81.416606 -14.099885 11.756347 96.651910 6.122241 1.403889 -6.016002 1.404230 -14.534839 -8.991465 -0.311474 0.516109 0.000000 0.000000 0.000000 177.241619 -3.919312 172.038859 -59.931119 19.032838 -24.657331 95.067381 0.225665 -0.599564 -15.091808 -4.520150 31.260236 -2.942239 -0.650858 0.387848 0.000000 0.000000 0.000000 178.111239 -5.509004 168.700386 6.569888 4.633941 -3.677317 8.033237 7.147606 -3.912175 0.562908 -3.586330 0.756876 0.000000 0.000000 0.000000 7.886153 6.700746 -3.728977 -4.908934 23.765548 7.296508 6.847318 33.241315 -24.273121 0.000000 0.000000 0.000000 8.451001 6.956735 -3.964556 0.899093 -13.717736 -10.501434 -3.322103 -1.453955 -3.970032 2.702255 2.817837 -31.510361 36.757916 -39.781948 1.136210 0.000000 0.000000 0.000000 7.972824 7.012234 -4.279838 5.196649 -18.381301 13.059928 0.661045 1.491973 -1.335459 13.393972 -12.140962 60.663732 34.428166 48.956125 -8.737957 0.000000 0.000000 0.000000 
-0.780372 66.986343 -0.193127 0.000000 0.000000 0.000000 177.674134 -7.223921 171.553820 -81.420636 -14.096764 11.754872 96.622691 6.110694 1.408639 -6.045334 1.394494 -14.526329 -8.981159 -0.311747 0.517622 0.000000 0.000000 0.000000 177.186677 -3.938251 172.027316 -59.971916 18.989519 -24.695961 95.083664 0.225452 -0.590713 -15.094737 -4.511856 31.239093 -2.932154 -0.649209 0.391269 0.000000 0.000000 0.000000 178.053948 -5.527221 168.681589 6.549742 4.636604 -3.671232 7.993555 7.143512 -3.916623 0.559621 -3.590982 0.755731 0.000000 0.000000 0.000000 7.839530 6.697530 -3.732025 -4.969155 23.772033 7.294813 6.948559 33.214121 -24.269730 0.000000 0.000000 0.000000 8.415537 6.952580 -3.968720 0.897161 -13.746688 -10.501797 -3.300249 -1.454938 -3.964476 2.756577 2.841013 -31.466565 36.745619 -39.883940 1.128352 0.000000 0.000000 0.000000 7.936185 7.008899 -4.286663 5.202512 -18.405019 13.010272 0.651091 1.483415 -1.342207 13.393589 -12.133278 60.763863 34.447998 48.889896 -8.766800 0.000000 0.000000 0.000000 
-0.786884 66.990448 -0.204849 0.000000 0.000000 0.000000 177.628099 -7.253912 171.529027 -81.422712 -14.107338 11.750596 96.596162 6.100632 1.408073 -6.065057 1.391154 -14.512222 -8.977868 -0.310677 0.515080 0.000000 0.000000 0.000000 177.139631 -3.964013 172.013328 -60.004359 18.948519 -24.729605 95.098343 0.220304 -0.581466 -15.105221 -4.504388 31.214023 -2.904769 -0.647698 0.394658 0.000000 0.000000 0.000000 178.003022 -5.551040 168.658899 6.527586 4.642909 -3.662594 7.960099 7.143452 -3.920862 0.549638 -3.596239 0.758510 0.000000 0.000000 0.000000 7.799709 6.697853 -3.737055 -4.995565 23.779427 7.291244 7.039362 33.195443 -24.282630 0.000000 0.000000 0.000000 8.387523 6.951551 -3.974081 0.895616 -13.785138 -10.501763 -3.276171 -1.448290 -3.956217 2.809566 2.886003 -31.411436 36.732774 -40.009144 1.128786 0.000000 0.000000 0.000000 7.905156 7.009083 -4.294250 5.207162 -18.434529 12.962693 0.640153 1.477913 -1.349953 13.389403 -12.127290 60.868576 34.458250 48.812821 -8.787656 0.000000 0.000000 0.000000 
-0.789099 66.992371 -0.214359 0.000000 0.000000 0.000000 177.590874 -7.290022 171.500709 -81.427890 -14.134446 11.742071 96.577304 6.088956 1.405222 -6.067786 1.390040 -14.496549 -8.983713 -0.308385 0.508942 0.000000 0.000000 0.000000 177.101587 -3.996590 171.996143 -60.029686 18.910753 -24.759205 95.114394 0.211474 -0.572134 -15.114497 -4.496647 31.196503 -2.872357 -0.646283 0.396623 0.000000 0.000000 0.000000 177.959705 -5.582735 168.633313 6.507773 4.652873 -3.651627 7.934877 7.148077 -3.922487 0.538112 -3.591571 0.757561 0.000000 0.000000 0.000000 7.767706 6.702527 -3.741222 -4.984007 23.786445 7.279527 7.117448 33.185120 -24.313583 0.000000 0.000000 0.000000 8.368731 6.954002 -3.977845 0.894772 -13.836213 -10.501397 -3.254714 -1.430776 -3.949607 2.859470 2.959201 -31.348140 36.719599 -40.154453 1.137440 0.000000 0.000000 0.000000 7.881713 7.013576 -4.299589 5.211743 -18.464735 12.916394 0.633827 1.479822 -1.362413 13.391283 -12.119467 60.978419 34.452656 48.712035 -8.795352 0.000000 0.000000 0.000000 
-0.787346 66.987831 -0.222370 0.000000 0.000000 0.000000 177.561354 -7.335373 171.471257 -81.441209 -14.176847 11.725897 96.569634 6.072314 1.403561 -6.056529 1.386745 -14.483157 -8.994595 -0.305418 0.500457 0.000000 0.000000 0.000000 177.072668 -4.036300 171.976022 -60.048066 18.879966 -24.784795 95.136967 0.202000 -0.565487 -15.119119 -4.487859 31.195038 -2.845342 -0.645039 0.396219 0.000000 0.000000 0.000000 177.925444 -5.625088 168.606826 6.494956 4.665733 -3.639705 7.921078 7.157839 -3.919021 0.523715 -3.582404 0.757181 0.000000 0.000000 0.000000 7.745499 6.711822 -3.741876 -4.933040 23.793876 7.254226 7.184709 33.184966 -24.367045 0.000000 0.000000 0.000000 8.360559 6.959741 -3.976682 0.894507 -13.900425 -10.503376 -3.239198 -1.403637 -3.943031 2.902206 3.060001 -31.279944 36.707062 -40.325758 1.156866 0.000000 0.000000 0.000000 7.867564 7.022246 -4.299712 5.216580 -18.494102 12.866495 0.633482 1.487310 -1.381994 13.401378 -12.106129 61.095680 34.429881 48.588221 -8.791884 0.000000 0.000000 0.000000 
-0.782490 66.973648 -0.228954 0.000000 0.000000 0.000000 177.538924 -7.392565 171.442557 -81.466965 -14.230487 11.696579 96.574435 6.050137 1.405184 -6.037719 1.378995 -14.475300 -9.004143 -0.302322 0.491355 0.000000 0.000000 0.000000 177.051084 -4.085096 171.953646 -60.057512 18.861243 -24.805975 95.170401 0.191156 -0.562300 -15.125135 -4.481574 31.208470 -2.827167 -0.644045 0.394336 0.000000 0.000000 0.000000 177.900842 -5.678107 168.579724 6.492770 4.680191 -3.628245 7.921521 7.171973 -3.909345 0.514870 -3.570496 0.751507 0.000000 0.000000 0.000000 7.736727 6.724866 -3.737397 -4.844673 23.801080 7.211373 7.247454 33.197465 -24.448240 0.000000 0.000000 0.000000 8.365150 6.968573 -3.968556 0.894735 -13.976223 -10.508712 -3.228609 -1.372446 -3.935622 2.928892 3.181116 -31.208026 36.695478 -40.531244 1.189027 0.000000 0.000000 0.000000 7.865349 7.034578 -4.292713 5.222339 -18.524327 12.809322 0.633485 1.496623 -1.409915 13.415619 -12.090131 61.218951 34.392820 48.453867 -8.784234 0.000000 0.000000 0.000000 
-0.777382 66.947922 -0.233795 0.000000 0.000000 0.000000 177.522231 -7.462941 171.417708 -81.505679 -14.288755 11.650161 96.588956 6.022941 1.411803 -6.020888 1.367628 -14.475071 -9.009568 -0.299703 0.484208 0.000000 0.000000 0.000000 177.035389 -4.144091 171.929658 -60.055879 18.858998 -24.822746 95.215644 0.175166 -0.560689 -15.139278 -4.484169 31.226928 -2.815536 -0.643953 0.392480 0.000000 0.000000 0.000000 177.885829 -5.742670 168.553687 6.502456 4.695229 -3.619155 7.937024 7.189172 -3.894092 0.510304 -3.554347 0.744427 0.000000 0.000000 0.000000 7.744774 6.740987 -3.728016 -4.720148 23.808598 7.153602 7.315170 33.226476 -24.563778 0.000000 0.000000 0.000000 8.383559 6.979579 -3.953489 0.895054 -14.058764 -10.518072 -3.219122 -1.342655 -3.921816 2.928791 3.309092 -31.135991 36.677716 -40.764724 1.228633 0.000000 0.000000 0.000000 7.876168 7.049571 -4.278761 5.229362 -18.560879 12.742014 0.628830 1.503644 -1.446646 13.423295 -12.068172 61.347134 34.346153 48.320252 -8.779389 0.000000 0.000000 0.000000 
